<?xml version="1.0" encoding="utf-8"?>
<svg xmlns="http://www.w3.org/2000/svg">
    <defs>
        <symbol id="nestjs" viewBox="0 0 24 24">
            <title>NestJS</title>
            <path
                d="M14.131.047c-.173 0-.334.037-.483.087.316.21.49.49.576.806.007.043.019.074.025.117a.681.681 0 0 1 .013.112c.024.545-.143.614-.26.936-.18.415-.13.861.086 1.22a.74.74 0 0 0 .074.137c-.235-1.568 1.073-1.803 1.314-2.293.019-.428-.334-.713-.613-.911a1.37 1.37 0 0 0-.732-.21zM16.102.4c-.024.143-.006.106-.012.18-.006.05-.006.112-.012.161-.013.05-.025.1-.044.149-.012.05-.03.1-.05.149l-.067.142c-.02.025-.031.05-.05.075l-.037.055a2.152 2.152 0 0 1-.093.124c-.037.038-.068.081-.112.112v.006c-.037.031-.074.068-.118.1-.13.099-.278.173-.415.266-.043.03-.087.056-.124.093a.906.906 0 0 0-.118.099c-.043.037-.074.074-.111.118-.031.037-.068.08-.093.124a1.582 1.582 0 0 0-.087.13c-.025.05-.043.093-.068.142-.019.05-.037.093-.05.143a2.007 2.007 0 0 0-.043.155c-.006.025-.006.056-.012.08-.007.025-.007.05-.013.075 0 .05-.006.105-.006.155 0 .037 0 .074.006.111 0 .05.006.1.019.155.006.05.018.1.03.15.02.049.032.098.05.148.013.03.031.062.044.087l-1.426-.552c-.241-.068-.477-.13-.719-.186l-.39-.093c-.372-.074-.75-.13-1.128-.167-.013 0-.019-.006-.031-.006A11.082 11.082 0 0 0 8.9 2.855c-.378.025-.756.074-1.134.136a12.45 12.45 0 0 0-.837.174l-.279.074c-.092.037-.18.08-.266.118l-.205.093c-.012.006-.024.006-.03.012-.063.031-.118.056-.174.087a2.738 2.738 0 0 0-.236.118c-.043.018-.086.043-.124.062a.559.559 0 0 1-.055.03c-.056.032-.112.063-.162.094a1.56 1.56 0 0 0-.148.093c-.044.03-.087.055-.124.086-.006.007-.013.007-.019.013-.037.025-.08.056-.118.087l-.012.012-.093.074c-.012.007-.025.019-.037.025-.031.025-.062.056-.093.08-.006.013-.019.02-.025.025-.037.038-.074.069-.111.106-.007 0-.007.006-.013.012a1.742 1.742 0 0 0-.111.106c-.007.006-.007.012-.013.012a1.454 1.454 0 0 0-.093.1c-.012.012-.03.024-.043.036a1.374 1.374 0 0 1-.106.112c-.006.012-.018.019-.024.03-.05.05-.093.1-.143.15l-.018.018c-.1.106-.205.211-.317.304-.111.1-.229.192-.347.273a3.777 3.777 0 0 1-.762.421c-.13.056-.267.106-.403.149-.26.056-.527.161-.756.18-.05 0-.105.012-.155.018l-.155.037-.149.056c-.05.019-.099.044-.148.068-.044.031-.093.056-.137.087a1.011 1.011 0 0 0-.124.106c-.043.03-.087.074-.124.111-.037.043-.074.08-.105.124-.031.05-.068.093-.093.143a1.092 1.092 0 0 0-.087.142c-.025.056-.05.106-.068.161-.019.05-.037.106-.056.161-.012.05-.025.1-.03.15 0 .005-.007.012-.007.018-.012.056-.012.13-.019.167C.006 7.95 0 7.986 0 8.03a.657.657 0 0 0 .074.31v.006c.019.037.044.075.069.112.024.037.05.074.08.111.031.031.068.069.106.1a.906.906 0 0 0 .117.099c.149.13.186.173.378.272.031.019.062.031.1.05.006 0 .012.006.018.006 0 .013 0 .019.006.031a1.272 1.272 0 0 0 .08.298c.02.037.032.074.05.111.007.013.013.025.02.031.024.05.049.093.073.137l.093.13c.031.037.069.08.106.118.037.037.074.068.118.105 0 0 .006.006.012.006.037.031.074.062.112.087a.986.986 0 0 0 .136.08c.043.025.093.05.142.069a.73.73 0 0 0 .124.043c.007.006.013.006.025.012.025.007.056.013.08.019-.018.335-.024.65.026.762.055.124.328-.254.6-.688-.036.428-.061.93 0 1.079.069.155.44-.329.763-.862 4.395-1.016 8.405 2.02 8.826 6.31-.08-.67-.905-1.041-1.283-.948-.186.458-.502 1.047-1.01 1.413.043-.41.025-.83-.062-1.24a4.009 4.009 0 0 1-.769 1.562c-.588.043-1.177-.242-1.487-.67-.025-.018-.031-.055-.05-.08-.018-.043-.037-.087-.05-.13a.515.515 0 0 1-.037-.13c-.006-.044-.006-.087-.006-.137v-.093a.992.992 0 0 1 .031-.13c.013-.043.025-.086.044-.13.024-.043.043-.087.074-.13.105-.298.105-.54-.087-.682a.706.706 0 0 0-.118-.062c-.024-.006-.055-.018-.08-.025l-.05-.018a.847.847 0 0 0-.13-.031.472.472 0 0 0-.13-.019 1.01 1.01 0 0 0-.136-.012c-.031 0-.062.006-.093.006a.484.484 0 0 0-.137.019c-.043.006-.086.012-.13.024a1.068 1.068 0 0 0-.13.044c-.043.018-.08.037-.124.056-.037.018-.074.043-.118.062-1.444.942-.582 3.148.403 3.787-.372.068-.75.148-.855.229l-.013.012c.267.161.546.298.837.416.397.13.818.247 1.004.297v.006a5.996 5.996 0 0 0 1.562.112c2.746-.192 4.996-2.281 5.405-5.033l.037.161c.019.112.043.23.056.347v.006c.012.056.018.112.025.162v.024c.006.056.012.112.012.162.006.068.012.136.012.204v.1c0 .03.007.067.007.098 0 .038-.007.075-.007.112v.087c0 .043-.006.08-.006.124 0 .025 0 .05-.006.08 0 .044-.006.087-.006.137-.006.018-.006.037-.006.055l-.02.143c0 .019 0 .037-.005.056-.007.062-.019.118-.025.18v.012l-.037.174v.018l-.037.167c0 .007-.007.02-.007.025a1.663 1.663 0 0 1-.043.168v.018c-.019.062-.037.118-.05.174-.006.006-.006.012-.006.012l-.056.186c-.024.062-.043.118-.068.18-.025.062-.043.124-.068.18-.025.062-.05.117-.074.18h-.007c-.024.055-.05.117-.08.173a.302.302 0 0 1-.019.043c-.006.006-.006.013-.012.019a5.867 5.867 0 0 1-1.742 2.082c-.05.031-.099.069-.149.106-.012.012-.03.018-.043.03a2.603 2.603 0 0 1-.136.094l.018.037h.007l.26-.037h.006c.161-.025.322-.056.483-.087.044-.006.093-.019.137-.031l.087-.019c.043-.006.086-.018.13-.024.037-.013.074-.02.111-.031.62-.15 1.221-.354 1.798-.595a9.926 9.926 0 0 1-3.85 3.142c.714-.05 1.426-.167 2.114-.366a9.903 9.903 0 0 0 5.857-4.68 9.893 9.893 0 0 1-1.667 3.986 9.758 9.758 0 0 0 1.655-1.376 9.824 9.824 0 0 0 2.61-5.268c.21.98.272 1.99.18 2.987 4.474-6.241.371-12.712-1.346-14.416-.006-.013-.012-.019-.012-.031-.006.006-.006.006-.006.012 0-.006 0-.006-.007-.012 0 .074-.006.148-.012.223a8.34 8.34 0 0 1-.062.415c-.03.136-.068.273-.105.41-.044.13-.093.266-.15.396a5.322 5.322 0 0 1-.185.378 4.735 4.735 0 0 1-.477.688c-.093.111-.192.21-.292.31a3.994 3.994 0 0 1-.18.155l-.142.124a3.459 3.459 0 0 1-.347.241 4.295 4.295 0 0 1-.366.211c-.13.062-.26.118-.39.174a4.364 4.364 0 0 1-.818.223c-.143.025-.285.037-.422.05a4.914 4.914 0 0 1-.297.012 4.66 4.66 0 0 1-.422-.025 3.137 3.137 0 0 1-.421-.062 3.136 3.136 0 0 1-.415-.105h-.007c.137-.013.273-.025.41-.05a4.493 4.493 0 0 0 .818-.223c.136-.05.266-.112.39-.174.13-.062.248-.13.372-.204.118-.08.235-.161.347-.248.112-.087.217-.18.316-.279.105-.093.198-.198.291-.304.093-.111.18-.223.26-.334.013-.019.026-.044.038-.062.062-.1.124-.199.18-.298a4.272 4.272 0 0 0 .334-.775c.044-.13.075-.266.106-.403.025-.142.05-.278.062-.415.012-.142.025-.285.025-.421 0-.1-.007-.199-.013-.298a6.726 6.726 0 0 0-.05-.415 4.493 4.493 0 0 0-.092-.415c-.044-.13-.087-.267-.137-.397-.05-.13-.111-.26-.173-.384-.069-.124-.137-.248-.211-.366a6.843 6.843 0 0 0-.248-.34c-.093-.106-.186-.212-.285-.317a3.878 3.878 0 0 0-.161-.155c-.28-.217-.57-.421-.862-.607a1.154 1.154 0 0 0-.124-.062 2.415 2.415 0 0 0-.589-.26Z" />
        </symbol>
        <symbol id="astro" viewBox="0 0 32 32">
            <title>Astro</title>
            <path
                d="M5.9,18.847a7.507,7.507,0,0,0-.572,2.624,3.265,3.265,0,0,0,.551,1.553,7.427,7.427,0,0,0,2.093,1.681L13.1,28.119A7.332,7.332,0,0,0,15.2,29.287a3.239,3.239,0,0,0,1.5,0,7.381,7.381,0,0,0,2.117-1.16L24,24.711a7.512,7.512,0,0,0,2.117-1.688,3.241,3.241,0,0,0,.55-1.563,7.515,7.515,0,0,0-.587-2.643L21.547,4.551a3.973,3.973,0,0,0-.54-1.3,1.733,1.733,0,0,0-.7-.51,3.972,3.972,0,0,0-1.4-.122H13.005a3.932,3.932,0,0,0-1.4.125,1.713,1.713,0,0,0-.7.512,3.94,3.94,0,0,0-.535,1.3L5.9,18.848Zm13.24-13.2a3.329,3.329,0,0,1,.441,1.093l3.892,12.784a16.168,16.168,0,0,0-4.653-1.573L16.291,9.391a.331.331,0,0,0-.513-.169.323.323,0,0,0-.119.169l-2.5,8.557a16.14,16.14,0,0,0-4.674,1.579L12.393,6.743a3.281,3.281,0,0,1,.442-1.094,1.458,1.458,0,0,1,.582-.43,3.31,3.31,0,0,1,1.175-.1h2.793a3.314,3.314,0,0,1,1.176.1,1.454,1.454,0,0,1,.583.432ZM16.127,21.06a5.551,5.551,0,0,0,3.4-.923,2.8,2.8,0,0,1-.207,2.182A3.938,3.938,0,0,1,17.773,23.8c-.674.428-1.254.8-1.254,1.787a2.079,2.079,0,0,0,.209.914,2.49,2.49,0,0,1-1.535-2.3v-.061c0-.683,0-1.524-.962-1.524a1.028,1.028,0,0,0-.391.077,1.021,1.021,0,0,0-.552.551,1.03,1.03,0,0,0-.079.391,3.769,3.769,0,0,1-.988-2.644,4.206,4.206,0,0,1,.175-1.248c.4.757,1.92,1.32,3.731,1.32Z" />
        </symbol>
        <symbol id="postgresql" viewBox="0 0 32 32">
            <title>PostgreSql</title>
            <path
                d="M22.839 0c-1.245 0.011-2.479 0.188-3.677 0.536l-0.083 0.027c-0.751-0.131-1.516-0.203-2.276-0.219-1.573-0.027-2.923 0.353-4.011 0.989-1.073-0.369-3.297-1.016-5.641-0.885-1.629 0.088-3.411 0.583-4.735 1.979-1.312 1.391-2.009 3.547-1.864 6.485 0.041 0.807 0.271 2.124 0.656 3.837 0.38 1.709 0.917 3.709 1.589 5.537 0.672 1.823 1.405 3.463 2.552 4.577 0.572 0.557 1.364 1.032 2.296 0.991 0.652-0.027 1.24-0.313 1.751-0.735 0.249 0.328 0.516 0.468 0.755 0.599 0.308 0.167 0.599 0.281 0.907 0.355 0.552 0.14 1.495 0.323 2.599 0.135 0.375-0.063 0.771-0.187 1.167-0.359 0.016 0.437 0.032 0.869 0.047 1.307 0.057 1.38 0.095 2.656 0.505 3.776 0.068 0.183 0.251 1.12 0.969 1.953 0.724 0.833 2.129 1.349 3.739 1.005 1.131-0.24 2.573-0.677 3.532-2.041 0.948-1.344 1.375-3.276 1.459-6.412 0.020-0.172 0.047-0.312 0.072-0.448l0.224 0.021h0.027c1.208 0.052 2.521-0.12 3.62-0.631 0.968-0.448 1.703-0.901 2.239-1.708 0.131-0.199 0.281-0.443 0.319-0.86 0.041-0.411-0.199-1.063-0.595-1.364-0.791-0.604-1.291-0.375-1.828-0.26-0.525 0.115-1.063 0.176-1.599 0.192 1.541-2.593 2.645-5.353 3.276-7.792 0.375-1.443 0.584-2.771 0.599-3.932 0.021-1.161-0.077-2.187-0.771-3.077-2.177-2.776-5.235-3.548-7.599-3.573-0.073 0-0.145 0-0.219 0zM22.776 0.855c2.235-0.021 5.093 0.604 7.145 3.228 0.464 0.589 0.6 1.448 0.584 2.511s-0.213 2.328-0.573 3.719c-0.692 2.699-2.011 5.833-3.859 8.652 0.063 0.047 0.135 0.088 0.208 0.115 0.385 0.161 1.265 0.296 3.025-0.063 0.443-0.095 0.767-0.156 1.105 0.099 0.167 0.14 0.255 0.349 0.244 0.568-0.020 0.161-0.077 0.317-0.177 0.448-0.339 0.509-1.009 0.995-1.869 1.396-0.76 0.353-1.855 0.536-2.817 0.547-0.489 0.005-0.937-0.032-1.319-0.152l-0.020-0.004c-0.147 1.411-0.484 4.203-0.704 5.473-0.176 1.025-0.484 1.844-1.072 2.453-0.589 0.615-1.417 0.979-2.537 1.219-1.385 0.297-2.391-0.021-3.041-0.568s-0.948-1.276-1.125-1.719c-0.124-0.307-0.187-0.703-0.249-1.235-0.063-0.531-0.104-1.177-0.136-1.911-0.041-1.12-0.057-2.24-0.041-3.365-0.577 0.532-1.296 0.88-2.068 1.016-0.921 0.156-1.739 0-2.228-0.12-0.24-0.063-0.475-0.151-0.693-0.271-0.229-0.12-0.443-0.255-0.588-0.527-0.084-0.156-0.109-0.337-0.073-0.509 0.041-0.177 0.145-0.328 0.287-0.443 0.265-0.215 0.615-0.333 1.14-0.443 0.959-0.199 1.297-0.333 1.5-0.496 0.172-0.135 0.371-0.416 0.713-0.828 0-0.015 0-0.036-0.005-0.052-0.619-0.020-1.224-0.181-1.771-0.479-0.197 0.208-1.224 1.292-2.468 2.792-0.521 0.624-1.099 0.984-1.713 1.011-0.609 0.025-1.163-0.281-1.631-0.735-0.937-0.912-1.688-2.48-2.339-4.251s-1.177-3.744-1.557-5.421c-0.375-1.683-0.599-3.037-0.631-3.688-0.14-2.776 0.511-4.645 1.625-5.828s2.641-1.625 4.131-1.713c2.672-0.151 5.213 0.781 5.724 0.979 0.989-0.672 2.265-1.088 3.859-1.063 0.756 0.011 1.505 0.109 2.24 0.292l0.027-0.016c0.323-0.109 0.651-0.208 0.984-0.28 0.907-0.215 1.833-0.324 2.76-0.339zM22.979 1.745h-0.197c-0.76 0.009-1.527 0.099-2.271 0.26 1.661 0.735 2.916 1.864 3.801 3 0.615 0.781 1.12 1.64 1.505 2.557 0.152 0.355 0.251 0.651 0.303 0.88 0.031 0.115 0.047 0.213 0.057 0.312 0 0.052 0.005 0.105-0.021 0.193 0 0.005-0.005 0.016-0.005 0.021 0.043 1.167-0.249 1.957-0.287 3.072-0.025 0.808 0.183 1.756 0.235 2.792 0.047 0.973-0.072 2.041-0.703 3.093 0.052 0.063 0.099 0.125 0.151 0.193 1.672-2.636 2.88-5.547 3.521-8.032 0.344-1.339 0.525-2.552 0.541-3.509 0.016-0.959-0.161-1.657-0.391-1.948-1.792-2.287-4.213-2.871-6.24-2.885zM16.588 2.088c-1.572 0.005-2.703 0.48-3.561 1.193-0.887 0.74-1.48 1.745-1.865 2.781-0.464 1.224-0.625 2.411-0.688 3.219l0.021-0.011c0.475-0.265 1.099-0.536 1.771-0.687 0.667-0.157 1.391-0.204 2.041 0.052 0.657 0.249 1.193 0.848 1.391 1.749 0.939 4.344-0.291 5.959-0.744 7.177-0.172 0.443-0.323 0.891-0.443 1.349 0.057-0.011 0.115-0.027 0.172-0.032 0.323-0.025 0.572 0.079 0.719 0.141 0.459 0.192 0.771 0.588 0.943 1.041 0.041 0.12 0.072 0.244 0.093 0.38 0.016 0.052 0.027 0.109 0.027 0.167-0.052 1.661-0.048 3.323 0.015 4.984 0.032 0.719 0.079 1.349 0.136 1.849 0.057 0.495 0.135 0.875 0.188 1.005 0.171 0.427 0.421 0.984 0.875 1.364 0.448 0.381 1.093 0.631 2.276 0.381 1.025-0.224 1.656-0.527 2.077-0.964 0.423-0.443 0.672-1.052 0.833-1.984 0.245-1.401 0.729-5.464 0.787-6.224-0.025-0.579 0.057-1.021 0.245-1.36 0.187-0.344 0.479-0.557 0.735-0.672 0.124-0.057 0.244-0.093 0.343-0.125-0.104-0.145-0.213-0.291-0.323-0.432-0.364-0.443-0.667-0.937-0.891-1.463-0.104-0.22-0.219-0.439-0.344-0.647-0.176-0.317-0.4-0.719-0.635-1.172-0.469-0.896-0.979-1.989-1.245-3.052-0.265-1.063-0.301-2.161 0.376-2.932 0.599-0.688 1.656-0.973 3.233-0.812-0.047-0.141-0.072-0.261-0.151-0.443-0.359-0.844-0.828-1.636-1.391-2.355-1.339-1.713-3.511-3.412-6.859-3.469zM7.735 2.156c-0.167 0-0.339 0.005-0.505 0.016-1.349 0.079-2.62 0.468-3.532 1.432-0.911 0.969-1.509 2.547-1.38 5.167 0.027 0.5 0.24 1.885 0.609 3.536 0.371 1.652 0.896 3.595 1.527 5.313 0.629 1.713 1.391 3.208 2.12 3.916 0.364 0.349 0.681 0.495 0.968 0.485 0.287-0.016 0.636-0.183 1.063-0.693 0.776-0.937 1.579-1.844 2.412-2.729-1.199-1.047-1.787-2.629-1.552-4.203 0.135-0.984 0.156-1.907 0.135-2.636-0.015-0.708-0.063-1.176-0.063-1.473 0-0.011 0-0.016 0-0.027v-0.005l-0.005-0.009c0-1.537 0.272-3.057 0.792-4.5 0.375-0.996 0.928-2 1.76-2.819-0.817-0.271-2.271-0.676-3.843-0.755-0.167-0.011-0.339-0.016-0.505-0.016zM24.265 9.197c-0.905 0.016-1.411 0.251-1.681 0.552-0.376 0.433-0.412 1.193-0.177 2.131 0.233 0.937 0.719 1.984 1.172 2.855 0.224 0.437 0.443 0.828 0.619 1.145 0.183 0.323 0.313 0.547 0.391 0.745 0.073 0.177 0.157 0.333 0.24 0.479 0.349-0.74 0.412-1.464 0.375-2.224-0.047-0.937-0.265-1.896-0.229-2.864 0.037-1.136 0.261-1.876 0.277-2.751-0.324-0.041-0.657-0.068-0.985-0.068zM13.287 9.355c-0.276 0-0.552 0.036-0.823 0.099-0.537 0.131-1.052 0.328-1.537 0.599-0.161 0.088-0.317 0.188-0.463 0.303l-0.032 0.025c0.011 0.199 0.047 0.667 0.063 1.365 0.016 0.76 0 1.728-0.145 2.776-0.323 2.281 1.333 4.167 3.276 4.172 0.115-0.469 0.301-0.944 0.489-1.443 0.541-1.459 1.604-2.521 0.708-6.677-0.145-0.677-0.437-0.953-0.839-1.109-0.224-0.079-0.457-0.115-0.697-0.109zM23.844 9.625h0.068c0.083 0.005 0.167 0.011 0.239 0.031 0.068 0.016 0.131 0.037 0.183 0.073 0.052 0.031 0.088 0.083 0.099 0.145v0.011c0 0.063-0.016 0.125-0.047 0.183-0.041 0.072-0.088 0.14-0.145 0.197-0.136 0.151-0.319 0.251-0.516 0.281-0.193 0.027-0.385-0.025-0.547-0.135-0.063-0.048-0.125-0.1-0.172-0.157-0.047-0.047-0.073-0.109-0.084-0.172-0.004-0.061 0.011-0.124 0.052-0.171 0.048-0.048 0.1-0.089 0.157-0.12 0.129-0.073 0.301-0.125 0.5-0.152 0.072-0.009 0.145-0.015 0.213-0.020zM13.416 9.849c0.068 0 0.147 0.005 0.22 0.015 0.208 0.032 0.385 0.084 0.525 0.167 0.068 0.032 0.131 0.084 0.177 0.141 0.052 0.063 0.077 0.14 0.073 0.224-0.016 0.077-0.048 0.151-0.1 0.208-0.057 0.068-0.119 0.125-0.192 0.172-0.172 0.125-0.385 0.177-0.599 0.151-0.215-0.036-0.412-0.14-0.557-0.301-0.063-0.068-0.115-0.141-0.157-0.219-0.047-0.073-0.067-0.156-0.057-0.24 0.021-0.14 0.141-0.219 0.256-0.26 0.131-0.043 0.271-0.057 0.411-0.052zM25.495 19.64h-0.005c-0.192 0.073-0.353 0.1-0.489 0.163-0.14 0.052-0.251 0.156-0.317 0.285-0.089 0.152-0.156 0.423-0.136 0.885 0.057 0.043 0.125 0.073 0.199 0.095 0.224 0.068 0.609 0.115 1.036 0.109 0.849-0.011 1.896-0.208 2.453-0.469 0.453-0.208 0.88-0.489 1.255-0.817-1.859 0.38-2.905 0.281-3.552 0.016-0.156-0.068-0.307-0.157-0.443-0.267zM14.787 19.765h-0.027c-0.072 0.005-0.172 0.032-0.375 0.251-0.464 0.52-0.625 0.848-1.005 1.151-0.385 0.307-0.88 0.469-1.875 0.672-0.312 0.063-0.495 0.135-0.615 0.192 0.036 0.032 0.036 0.043 0.093 0.068 0.147 0.084 0.333 0.152 0.485 0.193 0.427 0.104 1.124 0.229 1.859 0.104 0.729-0.125 1.489-0.475 2.141-1.385 0.115-0.156 0.124-0.391 0.031-0.641-0.093-0.244-0.297-0.463-0.437-0.52-0.089-0.043-0.183-0.068-0.276-0.084z" />
        </symbol>
        <symbol id="aws" viewBox="0 0 24 24">
            <title>AWS</title>
            <path
                d="m12.248 6.685c-.656 2.694-.614 2.55-1.209 5.014-.013.227-.201.406-.43.406-.025 0-.05-.002-.074-.006h.003-.675c-.02.004-.044.006-.067.006-.203 0-.37-.151-.396-.346v-.002c-.577-1.846-1.35-4.41-1.87-6.125-.192-.633-.066-.618.436-.605.174.005.342 0 .515 0 .012-.001.026-.002.041-.002.196 0 .358.145.385.333v.002c.169.605.281 1.069 1.246 4.88.018.075.042.146.066.215h.051c.023-.094.051-.182.075-.277q.548-2.313 1.092-4.63c.113-.48.314-.525.8-.525h.356c.32.005.422.07.502.389.281 1.097 1.102 4.77 1.251 5.174.24-.858-.084.37 1.336-5.108.098-.379.192-.454.577-.454h.591c.253.005.328.084.267.333-.113.446-.136.464-1.935 6.228-.146.464-.197.506-.684.506h-.497c-.342 0-.431-.061-.515-.394-.202-.759-1.092-4.485-1.238-5.01zm-6.364 5.211c.068.139.208.233.37.233.114 0 .216-.046.291-.121l.295-.197c.32-.211.342-.295.169-.633-.186-.354-.296-.773-.296-1.218 0-.015 0-.03 0-.045v.002c0-.146.028-2.61-.042-3.13-.062-.87-.665-1.584-1.471-1.811l-.014-.003c-.353-.098-.758-.154-1.177-.154-.126 0-.252.005-.375.015l.016-.001c-.736.029-1.42.224-2.025.547l.025-.012c-.091.049-.159.13-.191.227l-.001.003c-.026.118-.041.254-.041.393 0 .061.003.122.008.182l-.001-.008c.028.277.122.328.384.24.24-.08.469-.182.708-.253.345-.128.743-.202 1.159-.202.323 0 .635.045.931.128l-.024-.006c.317.095.564.334.668.639l.002.007c.077.258.122.554.122.861 0 .094-.004.188-.012.28l.001-.012c0 .258-.005.258-.258.211-.43-.107-.923-.169-1.431-.169-.187 0-.373.008-.556.025l.024-.002c-.726.053-1.36.406-1.787.933l-.004.005c-.26.36-.416.811-.416 1.298 0 .197.025.387.073.569l-.003-.016c.104.682.588 1.228 1.225 1.422l.012.003c.28.1.603.158.94.158.667 0 1.282-.227 1.77-.608l-.006.005c.178-.131.338-.29.52-.446.146.234.272.454.417.656zm-.72-2.887h.005c.111 0 .201.09.201.201 0 .014-.001.027-.004.041v-.001c-.01.178.005.356-.014.534-.05.523-.377.959-.83 1.164l-.009.004c-.294.154-.641.245-1.01.245-.075 0-.149-.004-.222-.011l.009.001c-.529-.031-.946-.467-.946-1.001 0-.082.01-.162.029-.239l-.001.007c.026-.548.46-.987 1.004-1.021h.003c.21-.034.452-.053.698-.053.388 0 .766.048 1.126.138l-.032-.007zm16.346 3.051c.825-.277 1.408-1.043 1.408-1.945 0-.141-.014-.279-.041-.412l.002.013c-.107-.653-.564-1.177-1.169-1.379l-.012-.004c-.912-.286-1.659-.575-2.383-.905l.129.053c-.209-.105-.351-.315-.356-.559v-.001c-.006-.037-.009-.079-.009-.122 0-.419.318-.763.726-.805h.003c.211-.05.453-.078.702-.078.217 0 .43.022.635.063l-.02-.003c.342.066.67.197 1.003.295.131.042.277.098.366-.075.046-.097.073-.211.073-.33 0-.298-.166-.557-.411-.689l-.004-.002c-.494-.236-1.074-.373-1.686-.373-.546 0-1.066.11-1.54.308l.026-.01c-.725.288-1.228.984-1.228 1.797 0 .779.462 1.451 1.127 1.755l.012.005c.361.174.754.277 1.134.417s.759.272 1.13.426c.256.142.427.411.427.72 0 .286-.146.537-.368.684l-.003.002c-1.298.72-3.04-.113-3.243-.178-.154-.051-.248.01-.295.174-.038.089-.06.193-.06.302 0 .369.255.679.599.761l.005.001c.531.213 1.146.336 1.79.336.546 0 1.072-.089 1.563-.253l-.035.01zm-7.634 7.625c2.498-.268 4.766-1.052 6.763-2.244l-.076.042c.375-.22.726-.48 1.082-.736.342-.24.15-.862-.53-.572-2.344 1.029-5.066 1.687-7.925 1.821l-.051.002c-.3.015-.651.023-1.004.023-1.152 0-2.284-.088-3.389-.258l.123.016c-3.117-.449-5.924-1.458-8.429-2.927l.109.059c-.088-.059-.189-.107-.297-.139l-.008-.002c-.23-.051-.361.22-.113.454 3.069 2.838 7.189 4.578 11.716 4.578h.014-.001c.675-.038 1.35-.042 2.015-.117zm8.187-4.32c.694.038.909.277.736.946-.178.694-.436 1.369-.651 2.053-.042.136-.197.295-.038.413.174.122.305-.047.422-.154.455-.433.813-.962 1.044-1.555l.01-.029c.258-.564.408-1.224.408-1.919 0-.016 0-.031 0-.047v.002c-.01-.29-.084-.413-.366-.492-.224-.069-.487-.122-.757-.148l-.016-.001c-.183-.023-.394-.036-.609-.036-.836 0-1.626.197-2.327.546l.03-.014c-.155.084-.289.176-.412.28l.004-.003c-.051.042-.15.248.113.286.024.002.053.003.081.003.069 0 .137-.006.202-.018l-.007.001c.526-.075 1.134-.118 1.751-.118.134 0 .267.002.4.006h-.019z" />
        </symbol>
        <symbol id="java" viewBox="0 0 305.001 305.001">
            <title>Java</title>
            <g id="XMLID_7_">
                <path id="XMLID_8_" d="M150.99,56.513c-14.093,9.912-30.066,21.147-38.624,39.734c-14.865,32.426,30.418,67.798,32.353,69.288
                c0.45,0.347,0.988,0.519,1.525,0.519c0.57,0,1.141-0.195,1.605-0.583c0.899-0.752,1.154-2.029,0.614-3.069
                c-0.164-0.316-16.418-31.888-15.814-54.539c0.214-7.888,11.254-16.837,22.942-26.312c10.705-8.678,22.839-18.514,29.939-30.02
                c15.586-25.327-1.737-50.231-1.914-50.479c-0.688-0.966-1.958-1.317-3.044-0.84c-1.085,0.478-1.686,1.652-1.438,2.811
                c0.035,0.164,3.404,16.633-5.97,33.6C169.301,43.634,160.816,49.603,150.99,56.513z" />
                <path id="XMLID_9_" d="M210.365,67.682c0.994-0.749,1.286-2.115,0.684-3.205c-0.602-1.09-1.913-1.571-3.077-1.129
                c-2.394,0.91-58.627,22.585-58.627,48.776c0,18.053,7.712,27.591,13.343,34.556c2.209,2.731,4.116,5.09,4.744,7.104
                c1.769,5.804-2.422,16.294-4.184,19.846c-0.508,1.022-0.259,2.259,0.605,3.005c0.467,0.403,1.05,0.607,1.634,0.607
                c0.497,0,0.996-0.148,1.427-0.448c0.967-0.673,23.63-16.696,19.565-36.001c-1.514-7.337-5.12-12.699-8.302-17.43
                c-4.929-7.329-8.489-12.624-3.088-22.403C181.419,89.556,210.076,67.899,210.365,67.682z" />
                <path id="XMLID_10_" d="M63.99,177.659c-0.964,2.885-0.509,5.75,1.315,8.283c6.096,8.462,27.688,13.123,60.802,13.123
                c0.002,0,0.003,0,0.004,0c4.487,0,9.224-0.088,14.076-0.262c52.943-1.896,72.58-18.389,73.39-19.09
                c0.883-0.764,1.119-2.037,0.57-3.067c-0.549-1.029-1.733-1.546-2.864-1.235c-18.645,5.091-53.463,6.898-77.613,6.898
                c-27.023,0-40.785-1.946-44.154-3.383c1.729-2.374,12.392-6.613,25.605-9.212c1.263-0.248,2.131-1.414,2.006-2.695
                c-0.125-1.281-1.201-2.258-2.488-2.258C106.893,164.762,68.05,165.384,63.99,177.659z" />
                <path id="XMLID_11_" d="M241.148,160.673c-10.92,0-21.275,5.472-21.711,5.705c-1.01,0.541-1.522,1.699-1.245,2.811
                c0.278,1.111,1.277,1.892,2.423,1.893c0.232,0.001,23.293,0.189,25.382,13.365c1.85,11.367-21.82,29.785-31.097,35.923
                c-1.002,0.663-1.391,1.945-0.926,3.052c0.395,0.943,1.314,1.533,2.304,1.533c0.173,0,0.348-0.018,0.522-0.056
                c2.202-0.47,53.855-11.852,48.394-41.927C261.862,164.541,250.278,160.673,241.148,160.673z" />
                <path id="XMLID_12_" d="M205.725,216.69c0.18-0.964-0.221-1.944-1.023-2.506l-12.385-8.675c-0.604-0.423-1.367-0.556-2.076-0.368
                c-0.129,0.034-13.081,3.438-31.885,5.526c-7.463,0.837-15.822,1.279-24.175,1.279c-18.799,0-31.091-2.209-32.881-3.829
                c-0.237-0.455-0.162-0.662-0.12-0.777c0.325-0.905,2.068-1.98,3.192-2.405c1.241-0.459,1.91-1.807,1.524-3.073
                c-0.385-1.266-1.69-2.012-2.978-1.702c-12.424,2.998-18.499,7.191-18.057,12.461c0.785,9.343,22.428,14.139,40.725,15.408
                c2.631,0.18,5.477,0.272,8.456,0.272c0.002,0,0.003,0,0.005,0c30.425,0,69.429-9.546,69.819-9.643
                C204.818,218.423,205.544,217.654,205.725,216.69z" />
                <path id="XMLID_13_"
                    d="M112.351,236.745c0.938-0.611,1.354-1.77,1.021-2.838c-0.332-1.068-1.331-1.769-2.453-1.755
                c-1.665,0.044-16.292,0.704-17.316,10.017c-0.31,2.783,0.487,5.325,2.37,7.556c5.252,6.224,19.428,9.923,43.332,11.31
                c2.828,0.169,5.7,0.254,8.539,0.254c30.39,0,50.857-9.515,51.714-9.92c0.831-0.393,1.379-1.209,1.428-2.127
                c0.049-0.917-0.409-1.788-1.193-2.267l-15.652-9.555c-0.543-0.331-1.193-0.441-1.813-0.314c-0.099,0.021-10.037,2.082-25.035,4.119
                c-2.838,0.385-6.392,0.581-10.562,0.581c-14.982,0-31.646-2.448-34.842-4.05C111.843,237.455,111.902,237.075,112.351,236.745z" />
                <path id="XMLID_14_"
                    d="M133.681,290.018c69.61-0.059,106.971-12.438,114.168-20.228c2.548-2.757,2.823-5.366,2.606-7.07
                c-0.535-4.194-4.354-6.761-4.788-7.04c-1.045-0.672-2.447-0.496-3.262,0.444c-0.813,0.941-0.832,2.314-0.016,3.253
                c0.439,0.565,0.693,1.51-0.591,2.795c-2.877,2.687-31.897,10.844-80.215,13.294c-6.619,0.345-13.561,0.519-20.633,0.52
                c-43.262,0-74.923-5.925-79.079-9.379c1.603-2.301,12.801-5.979,24.711-8.058c1.342-0.234,2.249-1.499,2.041-2.845
                c-0.208-1.346-1.449-2.273-2.805-2.096c-0.336,0.045-1.475,0.115-2.796,0.195c-19.651,1.2-42.36,3.875-43.545,13.999
                c-0.36,3.086,0.557,5.886,2.726,8.324c5.307,5.963,20.562,13.891,91.475,13.891C133.68,290.018,133.68,290.018,133.681,290.018z" />
                <path id="XMLID_15_" d="M261.522,271.985c-0.984-0.455-2.146-0.225-2.881,0.567c-0.103,0.11-10.568,11.054-42.035,17.48
                c-12.047,2.414-34.66,3.638-67.211,3.638c-32.612,0-63.643-1.283-63.953-1.296c-1.296-0.063-2.405,0.879-2.581,2.155
                c-0.177,1.276,0.645,2.477,1.897,2.775c0.323,0.077,32.844,7.696,77.31,7.696c21.327,0,42.08-1.733,61.684-5.151
                c36.553-6.408,39.112-24.533,39.203-25.301C263.082,273.474,262.504,272.44,261.522,271.985z" />
            </g>
        </symbol>
        <symbol id="laravel" viewBox="0 0 32 32">
            <title>Laravel</title>
            <path
                d="M13.143 23.585l10.46-5.97-4.752-2.736-10.453 6.019zM24.084 11.374l-4.757-2.736v5.417l4.758 2.737zM24.559 5.078l-4.756 2.736 4.756 2.736 4.755-2.737zM9.911 18.928l2.76-1.589v-11.934l-4.758 2.738v11.934zM7.437 1.846l-4.756 2.737 4.756 2.737 4.753-2.737zM2.204 5.406v18.452l10.464 6.022v-5.471l-5.472-3.096c-0.018-0.013-0.032-0.027-0.051-0.039-0.014-0.013-0.030-0.023-0.044-0.034l-0.001-0.003c-0.015-0.015-0.028-0.031-0.039-0.049l-0.001-0.001c-0.014-0.013-0.025-0.028-0.035-0.045l-0.001-0.001h-0.003c-0.008-0.015-0.016-0.035-0.024-0.055l-0.001-0.004c-0.007-0.015-0.015-0.032-0.022-0.051l-0.001-0.003c-0.004-0.020-0.008-0.045-0.010-0.070l-0-0.002c-0.003-0.015-0.006-0.033-0.008-0.051l-0-0.001v-12.759l-2.757-1.59zM24.085 23.857v-5.422l-10.464 5.974v5.47zM29.789 14.055v-5.417l-4.756 2.737v5.417zM30.725 7.69c0.011 0.038 0.018 0.081 0.018 0.126v0 6.513c-0 0.176-0.095 0.329-0.237 0.411l-0.002 0.001-5.468 3.149v6.241c-0 0.175-0.095 0.328-0.236 0.411l-0.002 0.001-11.416 6.57c-0.024 0.013-0.052 0.025-0.081 0.033l-0.003 0.001-0.030 0.013c-0.036 0.011-0.078 0.017-0.121 0.017s-0.085-0.006-0.125-0.018l0.003 0.001c-0.015-0.004-0.027-0.009-0.039-0.016l0.001 0.001c-0.031-0.011-0.057-0.021-0.082-0.033l0.004 0.002-11.413-6.57c-0.144-0.084-0.239-0.237-0.239-0.412v0-19.548c0-0.044 0.007-0.087 0.019-0.127l-0.001 0.003c0.004-0.015 0.013-0.025 0.018-0.040 0.009-0.029 0.019-0.053 0.030-0.076l-0.001 0.003c0.008-0.016 0.018-0.030 0.029-0.042l-0 0 0.042-0.057 0.047-0.034c0.018-0.015 0.034-0.030 0.052-0.043h0.001l5.708-3.285c0.068-0.040 0.15-0.064 0.237-0.064s0.169 0.024 0.239 0.065l-0.002-0.001 5.71 3.285c0.019 0.013 0.035 0.027 0.051 0.042l-0-0 0.048 0.034c0.016 0.018 0.025 0.038 0.042 0.057 0.012 0.012 0.022 0.026 0.031 0.041l0.001 0.001c0.010 0.020 0.020 0.044 0.029 0.069l0.001 0.004 0.016 0.040c0.011 0.035 0.018 0.076 0.018 0.118 0 0.002 0 0.004-0 0.006v-0 12.208l4.756-2.737v-6.241c0-0.001 0-0.002 0-0.002 0-0.043 0.006-0.085 0.017-0.125l-0.001 0.003c0.004-0.013 0.013-0.025 0.016-0.040 0.010-0.030 0.020-0.054 0.032-0.078l-0.002 0.004c0.009-0.015 0.023-0.025 0.032-0.042 0.015-0.019 0.027-0.038 0.042-0.054 0.014-0.013 0.029-0.025 0.045-0.035l0.001-0.001c0.018-0.013 0.033-0.029 0.052-0.040h0.001l5.708-3.286c0.068-0.040 0.15-0.064 0.237-0.064s0.169 0.024 0.239 0.065l-0.002-0.001 5.708 3.286c0.020 0.013 0.034 0.027 0.053 0.039 0.015 0.013 0.032 0.023 0.046 0.035 0.016 0.018 0.028 0.038 0.043 0.056 0.011 0.012 0.021 0.026 0.030 0.040l0.001 0.001c0.012 0.022 0.022 0.047 0.030 0.073l0.001 0.003c0.008 0.012 0.014 0.025 0.019 0.039l0 0.001z" />
        </symbol>
        <symbol id="mongo" viewBox="0 0 32 32">
            <title>MongoDB</title>
            <path
                d="M15.821 23.185s0-10.361 0.344-10.36c0.266 0 0.612 13.365 0.612 13.365-0.476-0.056-0.956-2.199-0.956-3.005zM22.489 12.945c-0.919-4.016-2.932-7.469-5.708-10.134l-0.007-0.006c-0.338-0.516-0.647-1.108-0.895-1.732l-0.024-0.068c0.001 0.020 0.001 0.044 0.001 0.068 0 0.565-0.253 1.070-0.652 1.409l-0.003 0.002c-3.574 3.034-5.848 7.505-5.923 12.508l-0 0.013c-0.001 0.062-0.001 0.135-0.001 0.208 0 4.957 2.385 9.357 6.070 12.115l0.039 0.028 0.087 0.063q0.241 1.784 0.412 3.576h0.601c0.166-1.491 0.39-2.796 0.683-4.076l-0.046 0.239c0.396-0.275 0.742-0.56 1.065-0.869l-0.003 0.003c2.801-2.597 4.549-6.297 4.549-10.404 0-0.061-0-0.121-0.001-0.182l0 0.009c-0.003-0.981-0.092-1.94-0.261-2.871l0.015 0.099z" />
        </symbol>
        <symbol id="mysql" viewBox="0 0 24 24">
            <title>MySql</title>
            <path
                d="m24.129 23.412-.508-.484c-.251-.331-.518-.624-.809-.891l-.005-.004q-.448-.407-.931-.774-.387-.266-1.064-.641c-.371-.167-.661-.46-.818-.824l-.004-.01-.048-.024c.212-.021.406-.06.592-.115l-.023.006.57-.157c.236-.074.509-.122.792-.133h.006c.298-.012.579-.06.847-.139l-.025.006q.194-.048.399-.109t.351-.109v-.169q-.145-.217-.351-.496c-.131-.178-.278-.333-.443-.468l-.005-.004q-.629-.556-1.303-1.076c-.396-.309-.845-.624-1.311-.916l-.068-.04c-.246-.162-.528-.312-.825-.435l-.034-.012q-.448-.182-.883-.399c-.097-.048-.21-.09-.327-.119l-.011-.002c-.117-.024-.217-.084-.29-.169l-.001-.001c-.138-.182-.259-.389-.355-.609l-.008-.02q-.145-.339-.314-.651-.363-.702-.702-1.427t-.651-1.452q-.217-.484-.399-.967c-.134-.354-.285-.657-.461-.942l.013.023c-.432-.736-.863-1.364-1.331-1.961l.028.038c-.463-.584-.943-1.106-1.459-1.59l-.008-.007c-.509-.478-1.057-.934-1.632-1.356l-.049-.035q-.896-.651-1.96-1.282c-.285-.168-.616-.305-.965-.393l-.026-.006-1.113-.278-.629-.048q-.314-.024-.629-.024c-.148-.078-.275-.171-.387-.279-.11-.105-.229-.204-.353-.295l-.01-.007c-.605-.353-1.308-.676-2.043-.93l-.085-.026c-.193-.113-.425-.179-.672-.179-.176 0-.345.034-.499.095l.009-.003c-.38.151-.67.458-.795.84l-.003.01c-.073.172-.115.371-.115.581 0 .368.13.705.347.968l-.002-.003q.544.725.834 1.14.217.291.448.605c.141.188.266.403.367.63l.008.021c.056.119.105.261.141.407l.003.016q.048.206.121.448.217.556.411 1.14c.141.425.297.785.478 1.128l-.019-.04q.145.266.291.52t.314.496c.065.098.147.179.241.242l.003.002c.099.072.164.185.169.313v.001c-.114.168-.191.369-.217.586l-.001.006c-.035.253-.085.478-.153.695l.008-.03c-.223.666-.351 1.434-.351 2.231 0 .258.013.512.04.763l-.003-.031c.06.958.349 1.838.812 2.6l-.014-.025c.197.295.408.552.641.787.168.188.412.306.684.306.152 0 .296-.037.422-.103l-.005.002c.35-.126.599-.446.617-.827v-.002c.048-.474.12-.898.219-1.312l-.013.067c.024-.063.038-.135.038-.211 0-.015-.001-.03-.002-.045v.002q-.012-.109.133-.206v.048q.145.339.302.677t.326.677c.295.449.608.841.952 1.202l-.003-.003c.345.372.721.706 1.127 1.001l.022.015c.212.162.398.337.566.528l.004.004c.158.186.347.339.56.454l.01.005v-.024h.048c-.039-.087-.102-.157-.18-.205l-.002-.001c-.079-.044-.147-.088-.211-.136l.005.003q-.217-.217-.448-.484t-.423-.508q-.508-.702-.969-1.467t-.871-1.555q-.194-.387-.375-.798t-.351-.798c-.049-.099-.083-.213-.096-.334v-.005c-.006-.115-.072-.214-.168-.265l-.002-.001c-.121.206-.255.384-.408.545l.001-.001c-.159.167-.289.364-.382.58l-.005.013c-.141.342-.244.739-.289 1.154l-.002.019q-.072.641-.145 1.318l-.048.024-.024.024c-.26-.053-.474-.219-.59-.443l-.002-.005q-.182-.351-.326-.69c-.248-.637-.402-1.374-.423-2.144v-.009c-.009-.122-.013-.265-.013-.408 0-.666.105-1.308.299-1.91l-.012.044q.072-.266.314-.896t.097-.871c-.05-.165-.143-.304-.265-.41l-.001-.001c-.122-.106-.233-.217-.335-.335l-.003-.004q-.169-.244-.326-.52t-.278-.544c-.165-.382-.334-.861-.474-1.353l-.022-.089c-.159-.565-.336-1.043-.546-1.503l.026.064c-.111-.252-.24-.47-.39-.669l.006.008q-.244-.326-.436-.617-.244-.314-.484-.605c-.163-.197-.308-.419-.426-.657l-.009-.02c-.048-.097-.09-.21-.119-.327l-.002-.011c-.011-.035-.017-.076-.017-.117 0-.082.024-.159.066-.223l-.001.002c.011-.056.037-.105.073-.145.039-.035.089-.061.143-.072h.002c.085-.055.188-.088.3-.088.084 0 .165.019.236.053l-.003-.001c.219.062.396.124.569.195l-.036-.013q.459.194.847.375c.298.142.552.292.792.459l-.018-.012q.194.121.387.266t.411.291h.339q.387 0 .822.037c.293.023.564.078.822.164l-.024-.007c.481.143.894.312 1.286.515l-.041-.019q.593.302 1.125.641c.589.367 1.098.743 1.577 1.154l-.017-.014c.5.428.954.867 1.38 1.331l.01.012c.416.454.813.947 1.176 1.464l.031.047c.334.472.671 1.018.974 1.584l.042.085c.081.154.163.343.234.536l.011.033q.097.278.217.57.266.605.57 1.221t.57 1.198l.532 1.161c.187.406.396.756.639 1.079l-.011-.015c.203.217.474.369.778.422l.008.001c.368.092.678.196.978.319l-.047-.017c.143.065.327.134.516.195l.04.011c.212.065.396.151.565.259l-.009-.005c.327.183.604.363.868.559l-.021-.015q.411.302.822.57.194.145.651.423t.484.52c-.114-.004-.249-.007-.384-.007-.492 0-.976.032-1.45.094l.056-.006c-.536.072-1.022.203-1.479.39l.04-.014c-.113.049-.248.094-.388.129l-.019.004c-.142.021-.252.135-.266.277v.001c.061.076.11.164.143.26l.002.006c.034.102.075.19.125.272l-.003-.006c.119.211.247.393.391.561l-.004-.005c.141.174.3.325.476.454l.007.005q.244.194.508.399c.161.126.343.25.532.362l.024.013c.284.174.614.34.958.479l.046.016c.374.15.695.324.993.531l-.016-.011q.291.169.58.375t.556.399c.073.072.137.152.191.239l.003.005c.091.104.217.175.36.193h.003v-.048c-.088-.067-.153-.16-.184-.267l-.001-.004c-.025-.102-.062-.191-.112-.273l.002.004zm-18.576-19.205q-.194 0-.363.012c-.115.008-.222.029-.323.063l.009-.003v.024h.048q.097.145.244.326t.266.351l.387.798.048-.024c.113-.082.2-.192.252-.321l.002-.005c.052-.139.082-.301.082-.469 0-.018 0-.036-.001-.054v.003c-.045-.044-.082-.096-.108-.154l-.001-.003-.081-.182c-.053-.084-.127-.15-.214-.192l-.003-.001c-.094-.045-.174-.102-.244-.169z" />
        </symbol>
        <symbol id="nextjs" viewBox="0 0 15 15">
            <title>NextJS</title>
            <path fill-rule="evenodd" clip-rule="evenodd"
                d="M0 7.5C0 3.35786 3.35786 0 7.5 0C11.6421 0 15 3.35786 15 7.5C15 10.087 13.6902 12.3681 11.6975 13.7163L4.90687 4.20942C4.78053 4.03255 4.5544 3.95756 4.34741 4.02389C4.14042 4.09022 4 4.28268 4 4.50004V12H5V6.06027L10.8299 14.2221C9.82661 14.7201 8.696 15 7.5 15C3.35786 15 0 11.6421 0 7.5ZM10 10V4H11V10H10Z" />
        </symbol>
        <symbol id="nodejs" viewBox="0 0 15 15">
            <title>NodeJS</title>
            <path clip-rule="evenodd"
                d="M14 4.21281L7.5 0.421143L1 4.21281V10.7872L2.00634 11.3742L4.06264 10.5422C4.62921 10.313 5.00004 9.7629 5.00004 9.15171V4H6.00004V9.15171C6.00004 10.1704 5.382 11.0871 4.43772 11.4692L3.09826 12.0112L7.5 14.5788L14 10.7872V4.21281ZM7 6C7 4.89543 7.89543 4 9 4H10.1667C11.1792 4 12 4.82081 12 5.83333V6H11V5.83333C11 5.3731 10.6269 5 10.1667 5H9C8.44772 5 8 5.44772 8 6C8 6.55228 8.44772 7 9 7H10C11.1046 7 12 7.89543 12 9C12 10.1046 11.1046 11 10 11H9C7.89543 11 7 10.1046 7 9H8C8 9.55228 8.44772 10 9 10H10C10.5523 10 11 9.55228 11 9C11 8.44772 10.5523 8 10 8H9C7.89543 8 7 7.10457 7 6Z" />
        </symbol>
        <symbol id="php" viewBox="0 0 24 24">
            <title>PHP</title>
            <path
                d="m12 5.601c-.035 0-.076 0-.116 0-1.61 0-3.18.175-4.69.507l.144-.027c-1.442.303-2.718.751-3.91 1.343l.094-.042c-1.011.487-1.867 1.139-2.57 1.93l-.007.008c-.571.624-.927 1.453-.945 2.364v.004c.019.914.374 1.741.946 2.367l-.002-.003c.71.799 1.566 1.451 2.529 1.917l.048.021c1.098.549 2.374.998 3.71 1.282l.106.019c1.366.305 2.936.48 4.546.48h.123-.006.116c1.61 0 3.18-.175 4.69-.507l-.144.027c1.442-.303 2.718-.751 3.91-1.343l-.094.042c1.011-.487 1.867-1.139 2.57-1.93l.007-.008c.571-.624.927-1.453.945-2.364v-.004c-.018-.915-.374-1.744-.947-2.371l.002.003c-.71-.799-1.566-1.451-2.529-1.917l-.048-.021c-1.098-.549-2.374-.998-3.71-1.282l-.106-.019c-1.366-.305-2.936-.48-4.546-.48-.041 0-.082 0-.123 0h.006zm-3.12 7.264c-.131.119-.28.221-.442.301l-.011.005c-.141.068-.308.131-.482.179l-.021.005c-.172.062-.371.099-.579.099-.008 0-.016 0-.024 0h.001-1.972l-.32 1.963h-1.447l1.28-6.675h2.773c.018 0 .04-.001.062-.001.36 0 .706.063 1.026.179l-.021-.007c.295.108.546.276.748.489l.001.001c.175.223.3.493.354.789l.002.011c.025.146.04.314.04.486 0 .196-.019.387-.055.573l.003-.019c-.036.179-.083.335-.142.485l.007-.019q-.086.221-.184.417-.122.196-.27.393c-.096.129-.201.242-.317.343l-.003.002zm4.172.589.565-2.822c.024-.107.038-.229.038-.355 0-.026-.001-.052-.002-.078v.004c-.001-.109-.043-.208-.111-.283-.069-.06-.151-.106-.241-.134l-.005-.001c-.125-.04-.269-.062-.418-.062-.017 0-.034 0-.051.001h.002-1.126l-.736 3.73h-1.423l1.28-6.48h1.423l-.343 1.767h1.28c.022 0 .047-.001.073-.001.331 0 .653.041.961.117l-.027-.006c.249.055.466.172.641.332l-.001-.001c.156.123.267.298.306.498l.001.005c.014.089.022.191.022.295 0 .17-.021.335-.062.492l.003-.014-.589 2.994zm7.902-2.184c-.04.181-.082.328-.132.473l.009-.031c-.054.159-.12.297-.201.425l.005-.008c-.069.155-.151.288-.248.408l.003-.004c-.098.122-.203.23-.317.329l-.003.003c-.131.119-.28.221-.442.301l-.011.005c-.141.068-.308.131-.482.179l-.021.005c-.172.062-.371.099-.579.099-.008 0-.016 0-.024 0h.001-1.972l-.343 1.959h-1.423l1.28-6.675h2.749c.022-.001.047-.001.073-.001.365 0 .716.063 1.041.18l-.022-.007c.287.104.529.272.718.488l.002.002c.19.222.325.497.378.799l.002.01c.022.131.035.281.035.435 0 .221-.026.435-.075.641l.004-.019zm-2.7-1.547h-.978l-.513 2.749h.856.052c.25 0 .496-.023.734-.066l-.025.004c.204-.036.386-.109.546-.212l-.006.003c.136-.122.25-.263.339-.421l.004-.008c.103-.188.18-.407.219-.638l.002-.012c.031-.129.048-.278.048-.431 0-.074-.004-.147-.012-.218l.001.009c-.014-.158-.072-.301-.161-.419l.001.002c-.116-.108-.255-.192-.409-.243l-.008-.002c-.186-.062-.399-.097-.621-.097-.023 0-.046 0-.068.001h.003zm-11.19 0h-.978l-.515 2.749h.858.052c.25 0 .496-.023.734-.066l-.025.004c.204-.036.386-.109.546-.212l-.006.003c.136-.122.25-.263.339-.421l.004-.008c.103-.188.18-.407.219-.638l.002-.012c.031-.129.048-.278.048-.431 0-.074-.004-.147-.012-.218l.001.009c-.014-.158-.072-.301-.161-.419l.001.002c-.116-.108-.255-.192-.409-.243l-.008-.002c-.186-.062-.399-.097-.621-.097-.023 0-.046 0-.068.001h.003z" />
        </symbol>
        <symbol id="python" viewBox="0 0 32 32">
            <title>Python</title>
            <path
                d="M13.275 15.88h5.417c1.508 0 2.712-1.241 2.712-2.756v-5.164c0-1.47-1.24-2.574-2.712-2.819-0.932-0.155-1.898-0.226-2.825-0.221s-1.813 0.083-2.592 0.221c-2.295 0.405-2.712 1.254-2.712 2.819v2.067h5.423v0.689h-7.459c-1.576 0-2.956 0.947-3.388 2.75-0.498 2.066-0.52 3.355 0 5.512 0.385 1.606 1.306 2.75 2.882 2.75h1.865v-2.478c0-1.79 1.549-3.369 3.388-3.369zM12.933 8.649c-0.562 0-1.018-0.461-1.018-1.030 0-0.572 0.455-1.037 1.018-1.037 0.56 0 1.018 0.465 1.018 1.037 0 0.57-0.457 1.030-1.018 1.030zM26.826 13.465c-0.389-1.569-1.133-2.75-2.712-2.75h-2.035v2.408c0 1.867-1.583 3.439-3.388 3.439h-5.417c-1.484 0-2.712 1.27-2.712 2.756v5.164c0 1.47 1.278 2.334 2.712 2.756 1.717 0.505 3.363 0.596 5.417 0 1.365-0.395 2.712-1.191 2.712-2.756v-2.067h-5.417v-0.689h8.129c1.576 0 2.163-1.099 2.712-2.75 0.566-1.699 0.542-3.332 0-5.512zM19.033 23.794c0.562 0 1.018 0.461 1.018 1.030 0 0.572-0.456 1.037-1.018 1.037-0.56 0-1.018-0.465-1.018-1.037 0-0.57 0.457-1.030 1.018-1.030z" />
        </symbol>
        <symbol id="react" viewBox="0 0 24 24">
            <title>React</title>
            <path
                d="M11.103,10.43793a1.78593,1.78593,0,1,0,2.43957.65362A1.786,1.786,0,0,0,11.103,10.43793Zm8.0047,1.93768q-.17587-.201-.37116-.40308.13641-.14337.264-.28649c1.60583-1.80427,2.28357-3.61371,1.65558-4.70154-.60217-1.043-2.39343-1.35382-4.63593-.91779q-.33132.06482-.659.14624-.06272-.21624-.13343-.43C14.467,3.49042,13.2381,1.99921,11.98206,2,10.77765,2.00055,9.61359,3.39709,8.871,5.5575q-.10959.31969-.20276.64471-.21908-.05375-.44-.0993c-2.366-.48578-4.27167-.16584-4.89844.9226-.601,1.04376.02753,2.74982,1.52851,4.47211q.22329.25562.45922.49976c-.18542.191-.361.38189-.52465.57171-1.4646,1.698-2.05719,3.37616-1.45716,4.41541.61969,1.07348,2.49854,1.42437,4.7854.97436q.278-.05511.55292-.124.10071.35156.22095.697c.73932,2.11706,1.89685,3.46863,3.097,3.4682,1.23944-.00073,2.48194-1.45288,3.23474-3.65875.05945-.17432.11573-.35535.16907-.54175q.35514.08835.71485.1568c2.20336.41687,3.95251.089,4.55145-.951C21.28058,15.93109,20.64288,14.12933,19.10767,12.37561ZM4.07019,7.45184c.38586-.67,1.94324-.93139,3.98608-.512q.19584.04027.39838.09a20.464,20.464,0,0,0-.42126,2.67767,20.88659,20.88659,0,0,0-2.10389,1.6936q-.21945-.22695-.42718-.4649l.00006.00006C4.21631,9.46057,3.708,8.08081,4.07019,7.45184Zm3.88666,5.72809c-.51056-.3866-.98505-.78265-1.41571-1.181.43036-.39587.90515-.79059,1.41467-1.17615q-.02746.58915-.02722,1.1792Q7.929,12.59117,7.95685,13.17993Zm-.00061,3.94061a7.23675,7.23675,0,0,1-2.63971.09314,1.766,1.766,0,0,1-1.241-.65631c-.36407-.63067.11176-1.978,1.36432-3.43023q.23621-.273.48791-.53174a20.49026,20.49026,0,0,0,2.10712,1.70007,20.80226,20.80226,0,0,0,.42621,2.712Q8.21011,17.07023,7.95624,17.12054Zm7.10113-8.03936q-.50309-.317-1.01861-.61365-.5073-.292-1.0268-.56207c.593-.24933,1.17591-.46228,1.73865-.63581A18.21775,18.21775,0,0,1,15.05737,9.08118ZM9.679,5.83521c.63623-1.85114,1.57763-2.98053,2.30352-2.98084.77308-.00037,1.77753,1.21826,2.43433,3.19763q.064.19355.121.38928a20.478,20.478,0,0,0-2.52716.9712,20.06145,20.06145,0,0,0-2.519-.98194Q9.578,6.13062,9.679,5.83521ZM9.27863,7.259a18.30717,18.30717,0,0,1,1.72967.642Q9.95746,8.4433,8.96094,9.0824C9.0412,8.4444,9.148,7.83313,9.27863,7.259ZM8.9624,14.91968q.49695.31813,1.00843.61273.52174.30039,1.05737.57556a18.19577,18.19577,0,0,1-1.74445.66492C9.15161,16.1908,9.04364,15.56879,8.9624,14.91968Zm5.45569,3.14551A7.23556,7.23556,0,0,1,13.18,20.39844l-.00006.00006a1.76585,1.76585,0,0,1-1.18841.747c-.72821.00042-1.65766-1.085-2.28992-2.89545q-.11169-.32108-.20551-.648a20.10863,20.10863,0,0,0,2.52918-1.0097,20.79976,20.79976,0,0,0,2.54736.97851Q14.50141,17.81983,14.41809,18.06519Zm.36224-1.32422c-.56921-.176-1.16058-.39252-1.76214-.64551q.50867-.2677,1.02472-.56543.52955-.30579,1.0321-.62689A18.1524,18.1524,0,0,1,14.78033,16.741Zm.44629-4.74268q.00111.91095-.05688,1.82044c-.49268.33343-1.01282.659-1.554.97143-.53894.31116-1.07293.59711-1.59674.8559q-.82682-.39624-1.62176-.854-.79047-.455-1.54468-.969-.06894-.90921-.06946-1.82172l.00012.00019q-.00063-.91187.06794-1.82184c.49255-.33637,1.00891-.66168,1.54278-.96991.53632-.30969,1.077-.59442,1.61469-.85248q.81664.39688,1.60382.85065.78992.454,1.549.95868.06519.91443.06524,1.83166Zm.95673-5.09283c1.92133-.37372,3.37-.12232,3.73291.50622.3866.66962-.16748,2.1485-1.55383,3.70636l-.00006.00006q-.1149.12891-.23841.25891A20.06118,20.06118,0,0,0,15.98,9.68915a20.04054,20.04054,0,0,0-.40546-2.64893Q15.88486,6.96387,16.18335,6.90546Zm-.12988,3.8847A18.16447,18.16447,0,0,1,17.51483,11.978a18.11912,18.11912,0,0,1-1.45672,1.20831q.02325-.59391.02288-1.18842Q16.08072,11.39389,16.05347,10.79016Zm3.8681,5.78876c-.36346.63116-1.76788.89435-3.65222.53784q-.32391-.06115-.66474-.14557a20.069,20.069,0,0,0,.38746-2.68176,19.93914,19.93914,0,0,0,2.13708-1.71588q.17643.18329.33563.36487v-.00007a7.23437,7.23437,0,0,1,1.40308,2.23792A1.76563,1.76563,0,0,1,19.92157,16.57892Z" />
        </symbol>
        <symbol id="wordpress" viewBox="-2 -2 24 24">
            <title>Wordpress</title>
            <path
                d="M9.99 0C4.474 0 0 4.473 0 9.99c0 5.518 4.473 9.991 9.99 9.991 5.518 0 9.991-4.473 9.991-9.99C19.981 4.473 15.508 0 9.991 0zM1.428 9.99c0-1.208.268-2.357.742-3.394l4.085 10.9c-2.857-1.351-4.827-4.205-4.827-7.505zm8.564 8.343a8.87 8.87 0 0 1-2.42-.339l2.57-7.273 2.63 7.024.06.116a8.77 8.77 0 0 1-2.84.472zM11.168 6.08c.515-.027.98-.08.98-.08.461-.053.408-.712-.053-.687 0 0-1.388.106-2.284.106-.84 0-2.256-.106-2.256-.106-.462-.026-.515.66-.055.688 0 0 .438.052.898.079l1.335 3.56-1.874 5.475-3.117-9.034c.517-.026.98-.079.98-.079.46-.054.407-.713-.054-.688 0 0-1.387.106-2.281.106l-.551-.01c1.53-2.264 4.162-3.76 7.153-3.76 2.23 0 4.259.83 5.784 2.19l-.112-.008c-.841 0-1.437.713-1.437 1.48 0 .688.406 1.268.84 1.956.329.557.706 1.27.706 2.3 0 .714-.28 1.542-.65 2.698l-.856 2.779-3.096-8.965zm3.127 11.117l2.617-7.365c.49-1.19.65-2.14.65-2.987 0-.307-.02-.592-.056-.858a8.155 8.155 0 0 1 1.049 4.003c-.001 3.077-1.713 5.763-4.26 7.207z" />
        </symbol>
    </defs>
</svg>